<svg width="158" height="69" viewBox="0 0 158 69" fill="none" xmlns="http://www.w3.org/2000/svg">
<path d="M80.3909 23.2193L75.1692 28.4409V56.2286C75.1692 58.1919 76.689 59.8654 78.6523 59.9364C80.6156 60.0073 82.4015 58.3634 82.4015 56.3232V26.4422C82.4015 25.0288 81.5854 23.8047 80.4027 23.2134C80.4027 23.2134 80.3968 23.2134 80.3909 23.2134V23.2193Z" fill="#F6AE24"/>
<path d="M125.434 31.5574C125.434 31.5574 125.416 31.5574 125.411 31.5574C125.411 31.5574 125.411 31.5574 125.405 31.5574C125.405 31.5574 125.393 31.5574 125.387 31.5574C123.305 31.5574 121.614 33.2486 121.614 35.3302C121.614 37.4118 123.305 39.103 125.387 39.103C127.468 39.103 129.16 37.4118 129.16 35.3302C129.16 33.2486 127.498 31.5869 125.434 31.5574Z" fill="#1F1F1F"/>
<path d="M28.819 31.3386C26.9149 31.3386 25.1467 31.7111 23.5737 32.4444C22.4797 32.953 21.4922 33.6153 20.6406 34.4077C19.8837 33.6034 18.9966 32.9411 18.0032 32.4385C16.5544 31.7052 14.9163 31.3386 13.1186 31.3386C11.6461 31.3386 10.2505 31.5988 8.96731 32.1132C8.30499 32.3793 7.67816 32.7105 7.09863 33.0949C6.97445 32.9234 6.83252 32.7578 6.67877 32.61C5.99872 31.9536 5.13534 31.6224 4.10639 31.6224C3.07744 31.6224 2.20815 31.9654 1.51035 32.6336C0.800727 33.3196 0.440002 34.2066 0.440002 35.2829V56.2641C0.440002 57.2989 0.794814 58.1801 1.49261 58.8719C2.19041 59.5697 3.07152 59.9245 4.10639 59.9245C5.14126 59.9245 6.06968 59.5638 6.75565 58.8601C7.42979 58.1623 7.77278 57.293 7.77278 56.2641V42.9646C7.77278 41.5217 8.18081 40.3803 9.01462 39.4815C9.82477 38.6063 10.8596 38.1864 12.1724 38.1864C13.4852 38.1864 14.3959 38.5472 15.1115 39.2863C15.8329 40.0315 16.1936 41.2023 16.1936 42.7753V56.2641C16.1936 57.2989 16.5484 58.1801 17.2462 58.8719C17.944 59.5697 18.8252 59.9245 19.86 59.9245C20.8949 59.9245 21.8233 59.5638 22.5093 58.8542C23.1834 58.1564 23.5205 57.2871 23.5205 56.2582V42.9586C23.5205 41.5157 23.9285 40.3744 24.7623 39.4756C25.5725 38.6004 26.5896 38.1805 27.8729 38.1805C29.1561 38.1805 30.0963 38.5412 30.8119 39.2804C31.5333 40.0255 31.894 41.1964 31.894 42.7694V56.2582C31.894 57.293 32.2489 58.1741 32.9467 58.866C33.6445 59.5638 34.5197 59.9186 35.5545 59.9186C36.5894 59.9186 37.5178 59.5579 38.2038 58.8483C38.8779 58.1505 39.215 57.2812 39.215 56.2523V42.7635C39.215 39.239 38.2511 36.4301 36.3528 34.4077C34.431 32.3616 31.894 31.3208 28.8131 31.3208L28.819 31.3386Z" fill="#F6AE24"/>
<path d="M64.2706 33.0298C62.3191 31.8471 59.9892 31.2439 57.3459 31.2439C54.7025 31.2439 52.2602 31.8649 50.1373 33.089C48.0084 34.319 46.329 36.0516 45.1344 38.2456C43.9517 40.4217 43.3545 42.8995 43.3545 45.6138C43.3545 48.3281 43.9931 50.8236 45.2468 52.988C46.5064 55.1642 48.2804 56.885 50.5157 58.1032C52.7333 59.3155 55.2702 59.9305 58.0496 59.9305C59.6285 59.9305 61.2961 59.6407 62.9992 59.0612C64.72 58.4817 66.1807 57.7188 67.3338 56.8022C68.1558 56.1872 68.5934 55.3475 68.5934 54.3836C68.5934 53.7035 68.3746 52.716 67.3338 51.8467C66.7484 51.3145 65.9914 51.0483 65.0748 51.0483C64.1583 51.0483 63.4131 51.3085 62.7567 51.823C62.2127 52.2429 61.4853 52.6036 60.5924 52.9052C59.7054 53.2068 58.8538 53.3546 58.0496 53.3546C55.9384 53.3546 54.2176 52.7869 52.7865 51.6101C51.7458 50.7586 51.0302 49.7415 50.5985 48.5114H66.914C67.8779 48.5114 68.6939 48.198 69.3444 47.5712C69.9949 46.9444 70.3438 46.1165 70.3438 45.1762C70.3438 42.5092 69.8234 40.1024 68.8004 38.0208C67.7537 35.892 66.228 34.2125 64.2706 33.0239V33.0298ZM57.3459 37.8139C59.0963 37.8139 60.4564 38.3165 61.5149 39.3396C62.3132 40.1142 62.8691 41.0663 63.2062 42.2313H50.6754C51.0834 41.09 51.7162 40.1556 52.5914 39.3869C53.7978 38.3284 55.353 37.8139 57.3518 37.8139H57.3459Z" fill="#F6AE24"/>
<path d="M109.58 33.1304C107.398 31.8767 104.956 31.2439 102.33 31.2439C99.7045 31.2439 97.2681 31.8826 95.1156 33.1363C92.9689 34.3899 91.2422 36.1344 89.9885 38.3106C88.7349 40.4927 88.1021 42.9468 88.1021 45.6079V65.2231C88.1021 66.2993 88.4628 67.1864 89.1725 67.8723C89.8703 68.5465 90.7395 68.8835 91.7685 68.8835C92.7974 68.8835 93.72 68.5346 94.4 67.8546C95.0801 67.1686 95.429 66.2875 95.429 65.2231V57.3285C96.1149 57.843 96.8541 58.2924 97.6347 58.6709C99.3674 59.5047 101.266 59.9245 103.27 59.9245C105.76 59.9245 108.054 59.2918 110.083 58.0381C112.105 56.7904 113.72 55.0518 114.873 52.8638C116.02 50.6935 116.599 48.2513 116.599 45.602C116.599 42.9527 115.973 40.4868 114.737 38.3106C113.501 36.1285 111.762 34.384 109.58 33.1245V33.1304ZM98.7169 38.9729C99.7991 38.3165 100.982 37.9972 102.336 37.9972C103.69 37.9972 104.885 38.3224 105.955 38.9729C107.031 39.6234 107.895 40.5341 108.522 41.6813C109.154 42.8404 109.474 44.1591 109.474 45.6079C109.474 47.0567 109.154 48.3577 108.522 49.5049C107.895 50.6403 107.025 51.5451 105.955 52.1956C104.891 52.8401 103.672 53.1713 102.336 53.1713C101 53.1713 99.7991 52.852 98.7169 52.1956C97.6406 51.5451 96.7891 50.6403 96.18 49.5108C95.5591 48.3695 95.2457 47.0567 95.2457 45.6079C95.2457 44.1591 95.5591 42.8345 96.18 41.6754C96.795 40.5341 97.6465 39.6234 98.7169 38.9729Z" fill="#1F1F1F"/>
<path d="M125.387 41.0486C124.358 41.0486 123.489 41.3916 122.791 42.0598C122.081 42.7458 121.721 43.6328 121.721 44.709V56.2641C121.721 57.2989 122.075 58.1801 122.773 58.8719C123.471 59.5697 124.346 59.9245 125.381 59.9245C126.416 59.9245 127.344 59.5638 128.03 58.8601C128.704 58.1682 129.047 57.293 129.047 56.2641V44.709C129.047 43.6446 128.698 42.7576 128.018 42.0775C127.338 41.3975 126.451 41.0486 125.387 41.0486Z" fill="#1F1F1F"/>
<path d="M157.196 54.147L148.822 43.8752L156.545 37.5951C157.344 36.9446 157.763 36.0576 157.763 35.0168C157.763 34.1416 157.438 33.3433 156.835 32.7223C156.19 31.9536 155.309 31.5455 154.292 31.5455C153.411 31.5455 152.589 31.8826 152.004 32.468L142.725 40.1556V34.9517C142.725 32.9589 141.105 31.3386 139.112 31.3386C137.119 31.3386 135.499 32.9589 135.499 34.9517V56.3291C135.499 58.322 137.119 59.9423 139.112 59.9423C141.105 59.9423 142.725 58.322 142.725 56.3291V49.2979L143.577 48.5469L151.696 58.5881C152.376 59.4633 153.305 59.9245 154.387 59.9245C155.209 59.9245 155.989 59.6348 156.699 59.0671C157.551 58.3575 158 57.4172 158 56.3587C158 55.4835 157.722 54.7206 157.19 54.1411L157.196 54.147Z" fill="#1F1F1F"/>
<path d="M68.4219 26.868C69.5041 27.9442 71.1894 28.0034 72.1888 26.9922L80.8876 18.2934C81.8929 17.294 81.8338 15.6027 80.7634 14.5264C80.4737 14.2308 80.1248 14.012 79.7522 13.87C79.6044 13.8109 79.4447 13.8405 79.3383 13.9469L67.8364 25.4487C67.73 25.5552 67.7004 25.7148 67.7596 25.8627C67.9015 26.2352 68.1203 26.5782 68.416 26.8739L68.4219 26.868Z" fill="#F6AE24"/>
<path d="M64.2055 0.925334C64.0873 0.907593 63.9631 0.943074 63.8803 1.03178L54.9331 9.97894C54.8503 10.0617 54.8089 10.1859 54.8267 10.3042C54.9154 10.8601 55.2051 12.5395 55.6428 14.3195C55.7137 14.6151 56.0804 14.7216 56.2932 14.5146L68.416 2.39189C68.6289 2.179 68.5165 1.81236 68.2208 1.7414C66.4349 1.3038 64.7555 1.01995 64.2055 0.925334Z" fill="#F6AE24"/>
<path d="M71.562 2.92411L56.8195 17.6665C56.7072 17.7789 56.6776 17.9504 56.7486 18.0982C57.0383 18.7073 57.7361 20.0852 58.5759 21.1792C58.7178 21.3684 58.9957 21.3861 59.1554 21.2265L75.1219 5.25995C75.2816 5.10028 75.2638 4.82235 75.0746 4.68042C73.9747 3.8407 72.6027 3.14291 71.9937 2.85314C71.8458 2.78218 71.6743 2.81175 71.562 2.92411Z" fill="#F6AE24"/>
<path d="M78.2502 9.09191C78.0255 8.3882 77.7002 7.74363 77.3395 7.18184C77.2094 6.97487 76.9255 6.9453 76.754 7.1168L61.0122 22.8586C60.8407 23.0301 60.8703 23.3139 61.0773 23.444C61.6391 23.8048 62.2836 24.1359 62.9874 24.3547C62.9874 24.3547 63.7029 24.5854 64.6668 24.8337C64.7969 24.8692 64.9329 24.8337 65.0275 24.7332L78.6345 11.1262C78.7292 11.0316 78.7646 10.8955 78.7351 10.7654C78.4808 9.80745 78.2561 9.086 78.2561 9.086L78.2502 9.09191Z" fill="#F6AE24"/>
</svg>
